<svg xmlns="http://www.w3.org/2000/svg" width="900px" height="900px">
  <g fill="none" fill-rule="nonzero">
    <path fill="#3D4844" d="M0 0H900V900H0z"/>
    <path fill="#D2C6AD" d="M635.169532,690.132552 L511.074825,227.597733 C495.51436,170.413025 443.775814,130.344828 384.257036,130.344828 L313.845932,130.344828 L313.845932,136.569014 C356.637211,140.848141 392.815292,169.635001 406.041687,210.481222 L459.336279,409.266161 L312.678897,409.266161 L312.678897,430.6618 L465.560465,430.6618 L530.914417,673.016041 C546.085871,730.589761 598.213428,770.268946 657.732206,770.268946 L729.310345,770.268946 L729.310345,764.822784 C685.741043,760.932667 648.784939,731.367784 635.169532,690.132552 Z M272.221689,529.470752 L264.830468,529.470752 C250.826049,570.705984 213.869945,599.492844 170.689655,603.38296 L170.689655,609.607146 L324.349246,609.607146 L324.349246,603.38296 C318.514072,603.38296 313.067909,602.215925 307.621746,600.270867 C278.445875,590.545577 262.496398,559.035635 272.221689,529.470752 Z"/>
  </g>
</svg>